<svg id="Layer_1" data-name="Layer 1" xmlns="http://www.w3.org/2000/svg" viewBox="0 0 173.27 80.2"><defs><style>.cls-1{fill:#fff;}</style></defs><title>startover_img</title><rect class="cls-1" x="50.42" y="41.3" width="117.69" height="30.07" transform="translate(1.93 -3.6) rotate(1.91)"/><path d="M68.17,76.19,41.46,75.3l1.39-41.64,26.71.88ZM52.28,63.69a2.1,2.1,0,0,1,.45.25c.17.12.35,0,.54-.29a3.88,3.88,0,0,0,.49-1,7.17,7.17,0,0,0,.26-.9,1,1,0,0,0,0-.59c0-.18,0-.28.2-.32a.38.38,0,0,1,.45.25.58.58,0,0,0,.55.33,2.43,2.43,0,0,0,.86-.16,4.92,4.92,0,0,1,1.58-.14,9.23,9.23,0,0,1,1.61.16,1.24,1.24,0,0,0,.91-.11A5.09,5.09,0,0,0,61,60.7c.26-.17.45-.21.56-.12l.21.34a4.83,4.83,0,0,1,.32.59,6.42,6.42,0,0,1,.29.64,1.39,1.39,0,0,1,.14.52c.06.22.15.52.27.89a1,1,0,0,0,.84.64c.45.11.75.1.9,0a1.22,1.22,0,0,0,.32-.74.71.71,0,0,0-.25-.84,2.08,2.08,0,0,1-.58-.86c-.07-.13-.2-.48-.4-1s-.42-1.16-.67-1.81-.48-1.32-.7-2-.39-1.16-.51-1.5-.27-.88-.48-1.47-.44-1.16-.66-1.73L60,50.66c-.18-.48-.29-.78-.33-.92a1.44,1.44,0,0,1-.11-.58,6.75,6.75,0,0,0-.11-.86c-.06-.3-.13-.58-.2-.86a1.44,1.44,0,0,0-.3-.62.32.32,0,0,0-.44,0,2.51,2.51,0,0,0-.46.41,4,4,0,0,0-.38.54,4.88,4.88,0,0,0-.23.48,1.39,1.39,0,0,0,.07.72,1.22,1.22,0,0,1,.12.55.9.9,0,0,1-.22.49,3.12,3.12,0,0,0-.36.65,2.47,2.47,0,0,0-.21.59,3.88,3.88,0,0,0-.07.53,5.07,5.07,0,0,1-.66,1.45A19.59,19.59,0,0,0,55,55.66a8.71,8.71,0,0,0-.5,1.62,3.47,3.47,0,0,1-.16.78,5.11,5.11,0,0,1-.25.84,4.24,4.24,0,0,1-.53,1,6,6,0,0,1-.49.87A9.11,9.11,0,0,0,52.44,62a4.29,4.29,0,0,0-.38,1.13C52,63.44,52.08,63.64,52.28,63.69ZM55,62.31a5.75,5.75,0,0,0-.22.57,3.5,3.5,0,0,1-.44.77l-.24.18a.44.44,0,0,0-.15.22.31.31,0,0,0-.11.2,3.82,3.82,0,0,0,.67-.63A1.92,1.92,0,0,0,55,62.31Zm6-5.43a3.59,3.59,0,0,1,.35,1.19,2.48,2.48,0,0,1-.08,1.07.29.29,0,0,1-.28.23,1.9,1.9,0,0,1-.6,0c-.24-.06-.49-.12-.74-.2A2.26,2.26,0,0,0,59,59a3.78,3.78,0,0,1-1.39-.22q-.14-.14-.45,0a6,6,0,0,1-1,.33,2.22,2.22,0,0,1-.93.16,3,3,0,0,1-.47-.17c-.09,0-.1-.12,0-.29a3.33,3.33,0,0,1,.33-.55c.14-.2.29-.42.43-.66a2.47,2.47,0,0,0,.3-.65,9.75,9.75,0,0,1,.35-1q.28-.69.6-1.41c.21-.48.39-.91.53-1.28s.23-.57.23-.59a.33.33,0,0,0-.18-.26L57,52.18c-.07,0,0-.12.14-.27a4.33,4.33,0,0,0,.46-.5,2.34,2.34,0,0,0,.33-.53c0-.14.17-.17.38-.09a2.89,2.89,0,0,1,.51.9c.26.56.54,1.19.84,1.91s.59,1.4.84,2Zm-5.8,5.17,4.74,0a4.75,4.75,0,0,0-1.15-.12c-.5,0-1,0-1.57,0A19.68,19.68,0,0,0,55.2,62.05Zm1.59-4.87.26-.53c.1-.18.18-.35.26-.51a2,2,0,0,0,.14-.37,1.27,1.27,0,0,0,.27-.67,3.58,3.58,0,0,1,.15-.61,1.45,1.45,0,0,0-.37.59,4.94,4.94,0,0,0-.33,1C57,56.44,56.9,56.82,56.79,57.18Zm1.7,1.29A2.78,2.78,0,0,0,58.3,58c-.08-.18-.2-.26-.36-.22a1.09,1.09,0,0,1-.42.06h-.27Zm6.65,2.27c.06.09,0,0-.06-.35s-.25-.76-.45-1.31-.44-1.22-.72-2-.57-1.6-.86-2.43c-.7-2-1.54-4.18-2.5-6.67q1.22,3.52,2.17,6.28c.32.83.61,1.63.88,2.39l.72,2c.21.58.37,1.07.5,1.46S65.05,60.71,65.14,60.74Z"/><path d="M88.42,76.86l-21.61-.71L68.19,34.5l21.61.72ZM82.68,54.5a1.56,1.56,0,0,0,.68-.59,1.63,1.63,0,0,0,.33-1.12,1.9,1.9,0,0,0-.2-.76,7.06,7.06,0,0,0-.53-.94c-.22-.32-.45-.63-.69-.92a9.07,9.07,0,0,0-.62-.72,4.22,4.22,0,0,0-1.62-1,5.52,5.52,0,0,0-2.43-.27A7.13,7.13,0,0,0,76,48.7a5.54,5.54,0,0,0-1.87,1.47,9.69,9.69,0,0,0-1.61,2.66,11.48,11.48,0,0,0-.76,4.07,9.72,9.72,0,0,0,.61,4.1A7.78,7.78,0,0,0,74,63.59,6,6,0,0,0,76.12,65a5.94,5.94,0,0,0,1.82.46,3.67,3.67,0,0,0,1.53-.31A8.2,8.2,0,0,0,81,64.3a13.9,13.9,0,0,0,1.24-.91,6.89,6.89,0,0,0,.65-.59,2.08,2.08,0,0,0,.16-.72c0-.34.06-.68.07-1s0-.7,0-1,0-.58,0-.75a3.13,3.13,0,0,1,.12-.84,5.27,5.27,0,0,0,.14-.75.68.68,0,0,0-.18-.7,6.88,6.88,0,0,1-.49-.62.47.47,0,0,1-.17-.19l-.09-.23a.29.29,0,0,1-.07-.14,4.29,4.29,0,0,1-.46.64,3,3,0,0,1-.63.37,1.82,1.82,0,0,1-.85.16c-.66,0-1.18-.05-1.55-.09s-.65.17-.83.62a1.12,1.12,0,0,0,.15,1.17,1.51,1.51,0,0,0,.72.6.68.68,0,0,0,.62.07c.22-.07.42-.15.61-.23s.28-.14.3-.23.1,0,.25.15a4,4,0,0,1,.57.69,1.76,1.76,0,0,1,0,1.44,3.65,3.65,0,0,1-1.08,1.74,2.88,2.88,0,0,1-2.24.44,3.11,3.11,0,0,1-1.46-.58,8.28,8.28,0,0,1-1.41-1.26,6,6,0,0,1-1-1.64A4.92,4.92,0,0,1,73.66,58a15.5,15.5,0,0,1,.06-2,15.13,15.13,0,0,1,.34-2,8.33,8.33,0,0,1,.6-1.67,2.68,2.68,0,0,1,1-1.08,4.1,4.1,0,0,1,2.09-.71,5.14,5.14,0,0,1,1.61.22,2.4,2.4,0,0,1,1.18,1,7.73,7.73,0,0,0,.73,1,1,1,0,0,1,.16.91c-.09.35.08.66.5.92a.51.51,0,0,0,.54.09Zm-8.11,2.59A6.54,6.54,0,0,0,75,59.63a6.79,6.79,0,0,0,.85,1.58,2.93,2.93,0,0,0,.84.83,1.47,1.47,0,0,0,.49.22c.09,0,.28-.12.56-.39s.29-.31.46-.46a2.21,2.21,0,0,1-.48-.15,2.39,2.39,0,0,1-.5-.16,1.58,1.58,0,0,1-.5-.32,3.93,3.93,0,0,1-1-1.18,6.4,6.4,0,0,1-.52-3,7.18,7.18,0,0,1,.19-2,15.11,15.11,0,0,1,.44-1.54,7.54,7.54,0,0,1,.66-1.37A4.25,4.25,0,0,0,75.49,53a13.06,13.06,0,0,0-.66,1.62A6.5,6.5,0,0,0,74.57,57.09Zm4.05-9.93c0,.09.28.19.86.29A3.71,3.71,0,0,1,81,48a8.9,8.9,0,0,1,1.43,1.09,7,7,0,0,1,1.09,1.17,2.77,2.77,0,0,1,.42,1,1.81,1.81,0,0,0,.24.7.5.5,0,0,0,0,.19.31.31,0,0,1,0,.09v.13A9.37,9.37,0,0,0,83.92,51a11.51,11.51,0,0,0-.72-1.38A4.54,4.54,0,0,0,82,48.3a8.26,8.26,0,0,0-1.49-.82,4.33,4.33,0,0,0-1-.29A5.88,5.88,0,0,0,78.62,47.16Zm1.47,8.21,2,.06a7.36,7.36,0,0,1-.81-.06,4.76,4.76,0,0,1-.75-.07C80.32,55.25,80.16,55.28,80.09,55.37Zm2.72.33.49.59c.08.16.19.34.3.54s.23.36.31.47A1.76,1.76,0,0,1,84,58a10.31,10.31,0,0,1,0,1.13c0,.4,0,.79-.09,1.15a7.15,7.15,0,0,0-.08.92c0,.43,0,.82-.09,1.16a1.63,1.63,0,0,1-.25.74c-.09.09-.25.24-.48.44l-.72.68-.95.92a7.89,7.89,0,0,0,1.12-.88,6.32,6.32,0,0,0,1-.9,3.16,3.16,0,0,0,.64-1.16,7.26,7.26,0,0,0,.18-1.46c0-.57,0-1.11,0-1.62a7.59,7.59,0,0,0-.11-1.35,1.75,1.75,0,0,0-.2-.69,1.81,1.81,0,0,0-.2-.42c-.12-.19-.25-.37-.38-.54a3.55,3.55,0,0,0-.38-.44C82.94,55.55,82.86,55.56,82.81,55.7Z"/><path d="M108.28,77.53l-21.5-.72,1.38-41.65,21.51.72ZM92.39,65a1.78,1.78,0,0,1,.45.26c.17.11.35,0,.54-.29a4,4,0,0,0,.5-1,6.26,6.26,0,0,0,.25-.89,1.06,1.06,0,0,0,0-.6c-.06-.17,0-.28.19-.32a.39.39,0,0,1,.46.26.58.58,0,0,0,.55.32,2.26,2.26,0,0,0,.86-.16,4.64,4.64,0,0,1,1.57-.13,8.45,8.45,0,0,1,1.62.16,1.27,1.27,0,0,0,.9-.11,7.32,7.32,0,0,0,.82-.45c.27-.18.46-.21.57-.12s.09.14.21.33.22.4.32.59l.29.64a1.6,1.6,0,0,1,.13.52c.06.23.15.53.28.9a.94.94,0,0,0,.83.64c.45.1.75.09.91,0a1.25,1.25,0,0,0,.31-.74.73.73,0,0,0-.25-.85,2.16,2.16,0,0,1-.58-.85c-.06-.14-.2-.49-.39-1s-.42-1.15-.68-1.81-.48-1.31-.7-2l-.51-1.5a15.15,15.15,0,0,0-.48-1.47c-.22-.58-.44-1.16-.66-1.72l-.6-1.56c-.17-.47-.28-.78-.32-.92a1.23,1.23,0,0,1-.12-.58,7,7,0,0,0-.11-.86c-.06-.29-.12-.58-.19-.85a1.33,1.33,0,0,0-.31-.63.32.32,0,0,0-.44,0,2.47,2.47,0,0,0-.46.41,3.34,3.34,0,0,0-.37.53,3.09,3.09,0,0,0-.24.49,1.41,1.41,0,0,0,.08.72,1.52,1.52,0,0,1,.12.55,1,1,0,0,1-.22.48,2.63,2.63,0,0,0-.37.66,2.42,2.42,0,0,0-.2.59,2.07,2.07,0,0,0-.07.52,5.31,5.31,0,0,1-.67,1.45A18.8,18.8,0,0,0,95.12,57a8,8,0,0,0-.5,1.63,3.86,3.86,0,0,1-.16.77,6,6,0,0,1-.25.85,4.84,4.84,0,0,1-.53,1,9.11,9.11,0,0,1-.49.87,10.59,10.59,0,0,0-.64,1.16,4.63,4.63,0,0,0-.38,1.12C92.11,64.77,92.19,65,92.39,65Zm2.67-1.38c-.09.23-.17.42-.22.58a3.86,3.86,0,0,1-.43.77,1.8,1.8,0,0,0-.25.18.34.34,0,0,0-.14.21.31.31,0,0,0-.11.21,5.37,5.37,0,0,0,.67-.63A2,2,0,0,0,95.06,63.64Zm6-5.43a4,4,0,0,1,.36,1.19,2.68,2.68,0,0,1-.09,1.08.29.29,0,0,1-.28.23,2,2,0,0,1-.6-.06l-.74-.19a2.81,2.81,0,0,0-.63-.13,3.88,3.88,0,0,1-1.39-.21c-.09-.1-.23-.1-.44,0a7.77,7.77,0,0,1-1,.32,2.06,2.06,0,0,1-.93.16,2.44,2.44,0,0,1-.47-.17c-.09,0-.1-.12,0-.29a3,3,0,0,1,.32-.55c.15-.2.29-.42.43-.65a2.23,2.23,0,0,0,.3-.66,8.29,8.29,0,0,1,.36-1c.18-.46.38-.93.59-1.41s.39-.91.54-1.28a5.76,5.76,0,0,0,.22-.59.33.33,0,0,0-.18-.26l-.35-.24q-.11,0,.15-.27a4.29,4.29,0,0,0,.46-.49,2.64,2.64,0,0,0,.32-.54c.05-.13.18-.16.38-.09A3,3,0,0,1,99,53c.25.55.53,1.19.84,1.9s.58,1.4.83,2.06S101.05,58.05,101.11,58.21Zm-5.8,5.17h4.75a4.76,4.76,0,0,0-1.16-.13c-.5,0-1,0-1.57,0A19.93,19.93,0,0,0,95.31,63.38Zm1.6-4.86.25-.54c.1-.18.19-.34.26-.5s.12-.28.15-.37a1.3,1.3,0,0,0,.26-.68,3.38,3.38,0,0,1,.16-.6,1.39,1.39,0,0,0-.38.58,4.92,4.92,0,0,0-.32,1C97.14,57.78,97,58.16,96.91,58.52ZM98.6,59.8a3.14,3.14,0,0,0-.18-.51c-.09-.19-.21-.26-.37-.22a1.05,1.05,0,0,1-.41,0h-.28Zm6.65,2.27c.07.1,0,0-.06-.34s-.25-.76-.45-1.31l-.72-2L103.17,56c-.71-2-1.55-4.18-2.51-6.66.81,2.34,1.53,4.44,2.18,6.28l.88,2.38c.26.76.5,1.43.71,2s.38,1.08.5,1.47S105.16,62.05,105.25,62.07Z"/><path d="M128.56,78.2,107,77.48l1.38-41.64,21.58.71ZM121.38,49l.1.07c.06.07.18.07.34,0s.28-.1.28-.18-.11-.16-.33-.23a.49.49,0,0,0-.54.1,1.09,1.09,0,0,1-.43.27,1.66,1.66,0,0,0-.42.42,1.88,1.88,0,0,1-1.14.42,7.55,7.55,0,0,1-1.41,0l-1-.1a4.2,4.2,0,0,1-.58-.07,2.25,2.25,0,0,0-.68,0,1.35,1.35,0,0,0-.59.23.91.91,0,0,0-.33.64c-.07.3,0,.5.17.62a1.52,1.52,0,0,0,.71.21l.8.05a.79.79,0,0,1,.51.12,4.27,4.27,0,0,1,.49,2.57c0,.3,0,.91,0,1.84s0,1.93,0,3,0,2,0,2.94l-.05,1.5a6.62,6.62,0,0,1-.24.75.77.77,0,0,1-.51.48.68.68,0,0,1-.53,0,.9.9,0,0,0-.53-.1c-.09,0-.2.07-.35.24s-.27.33-.39.5a3.46,3.46,0,0,0-.32.52c-.1.18-.1.29,0,.34s.48.16,1.12.12,1.16,0,1.57,0,.76,0,1.19.09.82.1,1.15.16a3.59,3.59,0,0,0,1.07.15,1,1,0,0,0,.89-.46,2.81,2.81,0,0,0,.42-.91.77.77,0,0,0-.09-.75.92.92,0,0,0-.92-.24c-.11,0-.27-.05-.47-.22a.91.91,0,0,0-.46-.26,1.1,1.1,0,0,0-.61.29c-.25.2-.43.28-.54.26s-.14-.13-.14-.38,0-.52,0-.81a8,8,0,0,1,0-.85l0-.63.29-8.72,0-.76a.4.4,0,0,1,.21-.36,1.15,1.15,0,0,1,.89,0,2.83,2.83,0,0,0,.73.24.82.82,0,0,0,.87-.19,5.64,5.64,0,0,0,.58-.54.62.62,0,0,0,.18-.66,1.16,1.16,0,0,0-.72-.91,2,2,0,0,1-.42-.24c-.1-.08-.09-.16,0-.22s.29-.13.71-.13a.67.67,0,0,1,.75.52,5.22,5.22,0,0,1,0,.55v.44l0,.41a4.28,4.28,0,0,0,.14-.85,3,3,0,0,0,0-.58.86.86,0,0,0-.19-.45.37.37,0,0,0-.31-.15,1.44,1.44,0,0,1-.37-.05A3,3,0,0,1,121.38,49Zm-4.55-.63,4.94.3c-.8-.1-1.53-.17-2.22-.21a16.1,16.1,0,0,0-1.64-.18A2.5,2.5,0,0,0,116.83,48.37ZM120,53.52,119.82,63l.28-.06a.28.28,0,0,1-.1-.17.38.38,0,0,0,0-.1.9.9,0,0,1,0-.18,10.19,10.19,0,0,1,0-1.6V57.82Zm.19,9.7c0,.09,0,.15.16.19a1.78,1.78,0,0,0,.46.07,2.44,2.44,0,0,1,.51.05l.29,0a4.4,4.4,0,0,1,.4.42.88.88,0,0,1,.25.53,3.59,3.59,0,0,0,0,.53c0,.19,0,.23,0,.11a4.63,4.63,0,0,1,0-.76.94.94,0,0,0-.53-1,4.58,4.58,0,0,0-1-.5A.41.41,0,0,0,120.19,63.22Z"/><path d="M149.14,78.89l-21.6-.72,1.38-41.65,21.61.72ZM134.86,65.21a.92.92,0,0,0-.18-.69,2.5,2.5,0,0,1-.32-.69c0-.12,0-.44,0-1V61.08c0-.67,0-1.32,0-1.94l.05-1.52c.06-.66.13-1.18.2-1.56a2.46,2.46,0,0,0,.05-.86c-.05-.06-.15,0-.32.34a3.43,3.43,0,0,1-.32.43c0-.34,0-.69-.07-1a7.09,7.09,0,0,1,0-.8.85.85,0,0,1,.13-.49,3.39,3.39,0,0,0,.51-.37.29.29,0,0,1,.43,0l.43.75,1,1.7,1.21,2.16c.43.78.82,1.51,1.19,2.21s.68,1.26,1,1.72a6.23,6.23,0,0,1,.46.85l1.14,1.64a1.72,1.72,0,0,1,.11.36c0,.22.1.45.15.71s.11.49.18.73.16.39.27.44a1.18,1.18,0,0,0,.49.17,2.36,2.36,0,0,0,.7,0,2.29,2.29,0,0,0,.65-.16.56.56,0,0,0,.36-.47,3.27,3.27,0,0,0-.08-1.59,12.8,12.8,0,0,1-.17-3.19c0-.7.07-1.51.13-2.42s.11-1.8.14-2.69.06-1.68.1-2.37.07-1.17.1-1.45a8.28,8.28,0,0,1,.3-1.32,1.35,1.35,0,0,0,.11-.71.63.63,0,0,1-.11-.34,1.6,1.6,0,0,0-.1-.45,1.3,1.3,0,0,1-.16-.48l-.39.49a2.77,2.77,0,0,1-.6.7,3.25,3.25,0,0,0-.51.22.64.64,0,0,0-.34.44,5.59,5.59,0,0,0,.22,1.2,3.69,3.69,0,0,1,.1,1.6c0,.21,0,.68-.06,1.42s-.09,1.53-.17,2.36-.13,1.63-.18,2.35-.07,1.18-.08,1.36a7.1,7.1,0,0,0-.24,1.09,1.05,1.05,0,0,1-.4.8.61.61,0,0,1-.57.17c-.21,0-.39-.22-.54-.55a8,8,0,0,1-.42-.78,2.38,2.38,0,0,1-.22-.7c-.06-.25-.1-.48-.13-.69s0-.33.17-.37l.17-.06a.76.76,0,0,0,.21-.1c.09,0,.15,0,.17,0-.31-.37-.59-.73-.85-1.08a9.48,9.48,0,0,1-1.11-1.58,8.24,8.24,0,0,1-.52-1.07c-.25-.55-.5-1.14-.77-1.76s-.51-1.22-.76-1.77-.39-.89-.46-1a5.13,5.13,0,0,1-.59-1.22,3.13,3.13,0,0,0-.49-1,.44.44,0,0,1-.16-.39v-.36c0-.09,0-.07,0,0a1.08,1.08,0,0,1-.24.38,4.48,4.48,0,0,1-.83.45c-.42.2-.66.39-.74.59a2.34,2.34,0,0,0,.07.53,3.83,3.83,0,0,0,.22.68c.09.23.17.45.23.65a2.34,2.34,0,0,1,.09.38,2.6,2.6,0,0,1-.15,1.06,4.85,4.85,0,0,0-.23,1.11,3.62,3.62,0,0,1-.17,1,3.9,3.9,0,0,0-.16.9c0,.11,0,.57-.1,1.38s-.11,1.7-.14,2.68l-.09,2.76a6.8,6.8,0,0,0,.05,1.63c.24.88.57,1.3,1,1.26a1.94,1.94,0,0,0,.61-.5A3.17,3.17,0,0,0,134.86,65.21Zm-.38,1.28s-.06.14,0,.29,0,.19.07.12.05-.15.16-.25a1.31,1.31,0,0,0,.27-.35,3.15,3.15,0,0,0,.42-.5l-.31.3A1.92,1.92,0,0,0,134.48,66.49Zm6.38-8.25c-.26-.55-.51-1.12-.76-1.7L139.38,55c-.24-.51-.46-.94-.66-1.28s-.4-.76-.62-1.24-.45-.93-.67-1.37S137,50.3,136.8,50a1.86,1.86,0,0,0-.52-.66l-.4-.27a2.62,2.62,0,0,0-.37-.24,1.85,1.85,0,0,0-.4-.18c.43.54.86,1.12,1.27,1.75s.81,1.27,1.26,2,.9,1.62,1.35,2.51.8,1.6,1,2,.41.77.5,1A1.71,1.71,0,0,0,140.86,58.24Zm-5.35,7.06.09-2.8.07-2a4.08,4.08,0,0,1,.1-1.05,3.51,3.51,0,0,0-.08-.59,8.45,8.45,0,0,1-.14-.92,7.28,7.28,0,0,1-.31-1.14c0,1.5.09,2.87.14,4.1,0,.53,0,1,0,1.59s0,1,0,1.4.05.72.05,1S135.51,65.25,135.51,65.3Zm.63-4.76.35-.26-.06-.27Zm6.59,7.11H143a3,3,0,0,0,.45-.12.47.47,0,0,0,.27-.08l.35-.21a1.84,1.84,0,0,0,.42-.29ZM145,64.42v-.14a.34.34,0,0,1,0-.13.86.86,0,0,0,0-.24.5.5,0,0,1,.14-.27.53.53,0,0,0,.15-.37l.21-6.34q.11-2.79.25-6.27a2,2,0,0,0-.22.86c0,.45-.11,1-.17,1.64s-.12,1.37-.15,2.19l-.08,2.52Zm.12.68,0,.75c.05,0,.07-.1.08-.23v-.24A.94.94,0,0,0,145.07,65.1Z"/><path d="M171.64,79.63l-24.13-.8,1.39-41.65L173,38Zm-12.8-18.4a2.17,2.17,0,0,0,.52,0c.06,0,.08-.07,0-.15s-.08-.22-.14-.43a2.77,2.77,0,0,1-.07-.82l.06-1.84a26.69,26.69,0,0,0,2.59-2,12.28,12.28,0,0,0,1.64-2.16,4.12,4.12,0,0,0,.6-2.54,5.07,5.07,0,0,0-.75-2.24,4.31,4.31,0,0,0-1.45-1.37,6.85,6.85,0,0,0-1.84-.7,10.54,10.54,0,0,0-1.92-.26,3.19,3.19,0,0,0-1.84.51,6.65,6.65,0,0,0-1.49,1.23,7.93,7.93,0,0,0-1.05,1.39,2.59,2.59,0,0,0-.43,1.08,7.94,7.94,0,0,1-.17,1.33,1,1,0,0,0,.26,1c.11.09.28.08.5,0a2.56,2.56,0,0,0,.63-.49A1.62,1.62,0,0,0,155,52a1,1,0,0,0,0-.74c-.26-.35-.32-.61-.18-.79a10.19,10.19,0,0,1,.74-.79c.19-.16.44-.37.76-.66a6.55,6.55,0,0,1,1.05-.79,5.52,5.52,0,0,1,1.19-.54,2.24,2.24,0,0,1,1.23,0,5.17,5.17,0,0,1,1.54.58,3.21,3.21,0,0,1,.73.93c.11.25.15.39.13.43s-.09,0-.18,0a2.57,2.57,0,0,1-.47-.26,4,4,0,0,1,.6.54c.13.21.26.42.41.64a1.39,1.39,0,0,1,.19.81,3.29,3.29,0,0,1-.29,1.15,9.21,9.21,0,0,1-.68,1.27,6.26,6.26,0,0,1-.87,1.13,1.6,1.6,0,0,1-.89.56c-.57.2-1,.34-1.28.41a.81.81,0,0,0-.56.62,2.42,2.42,0,0,0-.08.83,4.5,4.5,0,0,1,0,.87,6,6,0,0,1-.05.63q0,.39-.09.66a3.18,3.18,0,0,0-.13.78,1.92,1.92,0,0,0-.22.51.74.74,0,0,0,0,.44c0,.14.18.24.4.32a1,1,0,0,0,.49.13.34.34,0,0,0,.3-.17A.27.27,0,0,0,158.84,61.23Zm1.47-12.41a1.11,1.11,0,0,0-.4-.15,4.27,4.27,0,0,0-1-.17h-.21a5.28,5.28,0,0,0-1.13.3c-.33.12-.56.22-.7.28l-.56.5-.28.26a1.91,1.91,0,0,0,.52-.19,4.44,4.44,0,0,0,.52-.15,1.46,1.46,0,0,0,.41-.23,2.28,2.28,0,0,1,.62-.25c.3-.08.62-.15.95-.22a3.67,3.67,0,0,1,.89-.09C160.15,48.72,160.29,48.76,160.31,48.82Zm-3.46,16.95a3.06,3.06,0,0,0,.08.8,1.43,1.43,0,0,0,.55.79,4,4,0,0,0,1.14.45.93.93,0,0,0,1-.34c.19-.29.42-.66.68-1.11a.91.91,0,0,0,.07-1.09,1.74,1.74,0,0,0-1.4-.93,3.35,3.35,0,0,1-.73-.14.69.69,0,0,0-.7.09c-.12.13-.15.19-.09.17s.13.13.21.45a.63.63,0,0,1-.44.67Zm7.51-11.39a3.56,3.56,0,0,1-.29.54,2.6,2.6,0,0,1-.31.48,1.93,1.93,0,0,1-.44.42l-.36.26a2.28,2.28,0,0,0-.41.33c-.12.11-.26.26-.44.46s-.36.39-.55.58L161,58a1.07,1.07,0,0,0-.28.33c-.32.12-.49.3-.5.53a6.06,6.06,0,0,0,.12.75,5,5,0,0,1,.1.93l0,.71a6,6,0,0,1,.09-.88,4.41,4.41,0,0,0,.06-.7l0-.56c0-.11.11-.3.38-.57l.88-.84c.32-.29.63-.56,1-.8a2.49,2.49,0,0,0,.54-.5,3.6,3.6,0,0,0,.23-.33c.14-.2.27-.41.4-.63a5,5,0,0,0,.31-.61A.57.57,0,0,0,164.36,54.38Z"/><rect class="cls-1" x="1.88" y="3.27" width="78.83" height="42.13" transform="translate(-1.77 3.29) rotate(-4.47)"/><path d="M32.31,45.78,3.72,48,.47,6.47,29.06,4.23ZM19.66,17.38l-1.26.09-1.94.08-1.87,0-1,0c-.25,0-.41.1-.46.22a1.58,1.58,0,0,0-.1.57,1.43,1.43,0,0,0,.59.88,4.41,4.41,0,0,0,.72.56.74.74,0,0,0,.46.09l.73,0c.26,0,.5,0,.73,0a1.44,1.44,0,0,0,.41-.06,1.08,1.08,0,0,0,.36-.34c.07-.12.31-.2.72-.23a.42.42,0,0,1,.39.23,2.32,2.32,0,0,1,.28.63c.07.25.13.52.18.8a4.77,4.77,0,0,0,.16.73,10.15,10.15,0,0,1,.16,1.59C19,24.09,19,25,19,26s.07,2,.09,3.06,0,1.78,0,2.26a4.12,4.12,0,0,0,.32,2.12c.25.42.47.65.66.71A1,1,0,0,0,20.8,34a2,2,0,0,0,.56-.47.42.42,0,0,0,0-.43,4.28,4.28,0,0,0-.26-.61l-.31-1-.93-11.9.2,0a.65.65,0,0,0,.22,0l.22,0a1.09,1.09,0,0,1,.49.1,1,1,0,0,0,.55.06,1.57,1.57,0,0,0,.47-.07,2,2,0,0,1,.3-.19l.77-.17a.84.84,0,0,1,.76.15c.22.14.38.19.48.13a3.5,3.5,0,0,1,.68-.19,1.07,1.07,0,0,0,.77-.71,2.68,2.68,0,0,0-.34-1.68.9.9,0,0,0-.56-.62,1.35,1.35,0,0,0-.77,0,2.33,2.33,0,0,0-.7.31,1.77,1.77,0,0,1-.47.26,2,2,0,0,1-.84.2l-.89.07a4.13,4.13,0,0,0-.5.15,4.29,4.29,0,0,1-.5.07ZM21,20.22c.18,2.24.36,4.24.54,6,.06.8.13,1.56.21,2.3s.15,1.4.21,2,.1,1.1.13,1.51l.05.65a1.77,1.77,0,0,1-.05.65.63.63,0,0,1-.11.28c.13,0,.24-.11.32-.29a1.52,1.52,0,0,0,.12-.6,5.68,5.68,0,0,0-.1-1.25c0-.57-.12-1.44-.23-2.6s-.22-2.34-.31-3.52l-.25-3.13-.11-1.46c0-.18.08-.28.28-.29l.61-.05a9.73,9.73,0,0,0,1.1-.16l1.1-.18a2.8,2.8,0,0,0,.67-.16,5.27,5.27,0,0,0,.58-.56,1.33,1.33,0,0,0,.24-.39.9.9,0,0,1-.38.44,1.59,1.59,0,0,1-1.08.56,8.37,8.37,0,0,1-.92,0c-.39,0-.77,0-1.15,0l-1,.08C21.24,20.1,21.08,20.15,21,20.22Z"/><path d="M52.3,44.21,30.81,45.89,27.57,4.35,49.05,2.67ZM34.06,16.53a1.25,1.25,0,0,0-.31.92,8.36,8.36,0,0,0,0,1.23l.12,1.58c.07.89.16,1.85.26,2.87s.19,2,.26,2.83l.11,1.52c0,.11,0,.41,0,.88s0,1,.08,1.54.1,1.06.16,1.56a2.92,2.92,0,0,0,.25,1l.28.46a1.24,1.24,0,0,0,.42.14.89.89,0,0,0,.78-.28,1.26,1.26,0,0,0,.4-.81,2.1,2.1,0,0,0-.3-1,2.34,2.34,0,0,1-.32-.83c0-.14,0-.34,0-.62s0-.56,0-.87v-.84a4.32,4.32,0,0,0,0-.55,7.22,7.22,0,0,1-.17-.84c0-.34,0-.57.12-.69a3.46,3.46,0,0,1,1.1-.19,4.77,4.77,0,0,0,1.3-.24,3,3,0,0,0,.91-.35,1.09,1.09,0,0,1,.94,0,1.93,1.93,0,0,1,.6.7c.23.38.48.81.73,1.29l.75,1.41.56,1.09.49,1a7.8,7.8,0,0,0,.63,1.06,4.28,4.28,0,0,0,.69.79c.24.2.45.23.64.1.42-.24.65-.47.7-.69a1.51,1.51,0,0,0-.1-.83,3.48,3.48,0,0,0-.4-.56c-.22-.27-.46-.57-.74-.9l-.81-1a4.13,4.13,0,0,1-.61-1,13.63,13.63,0,0,1-.85-2.09c0-.13,0-.22-.07-.25s0-.08.08-.15.18-.24.49-.51a5.4,5.4,0,0,0,.94-1.1,12.52,12.52,0,0,0,.84-1.46,2.4,2.4,0,0,0,.24-1.51A4.91,4.91,0,0,0,44.52,18a4.8,4.8,0,0,0-1.25-1.31,4.58,4.58,0,0,0-1-.66,2,2,0,0,0-.76-.2c-.18-.07-.26-.13-.21-.17s0,0-.2.07a1.74,1.74,0,0,1-.76.18L39,16l-1.5.14-1,.1L35,16.39A3.63,3.63,0,0,0,34.06,16.53Zm2.66,10.4c0,.07,0,.29.1.67s.13.82.21,1.3.14.94.22,1.37.13.72.14.88a6,6,0,0,1,.08.75.9.9,0,0,1-.22.53,1.64,1.64,0,0,0-.24.36s-.07,0-.21.05a2.06,2.06,0,0,1-.55-.06,2.72,2.72,0,0,1-.38-.14l.54.47c.41.24.68.26.8.07a2.72,2.72,0,0,0,.23-.73,9,9,0,0,0,.17-1.18c0-.44.06-.87.1-1.31a7.18,7.18,0,0,0,0-1.13,2.9,2.9,0,0,1-.09-.79,6.32,6.32,0,0,0,0-.64,1.41,1.41,0,0,1,.06-.55L38,27a1.57,1.57,0,0,0,.8.14c.22,0,.24-.15.06-.34a.7.7,0,0,0-.55-.27,1.38,1.38,0,0,1-.72-.13,4.12,4.12,0,0,0-.69-.27c-.18-.06-.26,0-.23.27S36.71,26.82,36.72,26.93Zm4.19-9a2.93,2.93,0,0,1,1.46.33,1.63,1.63,0,0,1,.7.72,3.77,3.77,0,0,1,.4,1.11,1.86,1.86,0,0,1-.11,1.28,3.46,3.46,0,0,1-.73,1.11,2.17,2.17,0,0,1-1.1.62,6.86,6.86,0,0,1-1.47.2,3.6,3.6,0,0,1-.84,0l-.95-.09-.77-.08a2,2,0,0,0-.44,0,4,4,0,0,0-.59.28c-.35.19-.58.22-.68.09s-.11-.28,0-.58a3.28,3.28,0,0,1,.19-.63c.08-.14.1-.25.06-.31a1.55,1.55,0,0,1-.12-.44,4.75,4.75,0,0,0-.09-.52c0-.24-.1-.48-.15-.74s-.08-.49-.12-.69-.06-.32-.06-.34a1.48,1.48,0,0,1,0-.55c.1-.14.34-.16.71-.06q.25.12.36.06a1.44,1.44,0,0,1,.46-.09,3.39,3.39,0,0,0,.59-.09,2.76,2.76,0,0,1,.62-.1c.19,0,.52,0,1,0a2.47,2.47,0,0,0,1-.13.36.36,0,0,1,.22-.17Zm-4.63,1.66c-.08.1-.06.23.08.39a.79.79,0,0,1,.22.41.58.58,0,0,0,.23.32l.08.07a1.64,1.64,0,0,1-.24-.43c-.18-.26-.2-.45,0-.58a2.91,2.91,0,0,1,.68-.12l.47,0L37,19.52a2.14,2.14,0,0,0-.49,0C36.35,19.5,36.28,19.53,36.28,19.57Zm.38,1.82a.73.73,0,0,1-.1.42.9.9,0,0,0,0,.21l.47.27,1.81,0a3.09,3.09,0,0,1-.83-.11l-.6-.16a.82.82,0,0,1-.42-.2l-.23-.29Zm5.1-6.55c.61.29,1.18.59,1.71.89a9.88,9.88,0,0,1,1.3,1,3.18,3.18,0,0,1,.84,1.36A9.6,9.6,0,0,1,46,21.26a3.34,3.34,0,0,1-.71,2.26c-.4.38-.74.72-1,1s-.42.53-.41.62a3.28,3.28,0,0,0,.33.72A13.39,13.39,0,0,0,45,27.21c.34.54.73,1.15,1.17,1.82-.35-.65-.64-1.25-.86-1.78a11.09,11.09,0,0,1-.58-1.34,2.18,2.18,0,0,1-.2-.79,3.38,3.38,0,0,1,.36-.56,9.57,9.57,0,0,0,.72-1.1A5.53,5.53,0,0,0,46.17,22a4.31,4.31,0,0,0,.13-1.63c-.12-.57-.21-1.09-.28-1.56a3.6,3.6,0,0,0-.52-1.38,4.56,4.56,0,0,0-1.28-1.28A14.1,14.1,0,0,0,41.76,14.84Zm4.38,17.92q-.06.18.27,0a1.42,1.42,0,0,0,.6-.71,1.85,1.85,0,0,0,.16-.91,2,2,0,0,0-.06-.4l-.08.76c0,.18-.07.35-.11.52a.85.85,0,0,1-.23.39,1.11,1.11,0,0,1-.37.2A.27.27,0,0,0,46.14,32.76Z"/><path d="M81.86,41.9,51.52,44.27,48.27,2.73,78.61.36ZM60.49,21.27a1.55,1.55,0,0,1-.33.1c-.07,0-.12-.11-.16-.33a.82.82,0,0,1-.17-.4,2.31,2.31,0,0,0-.14-.5c-.08-.11-.24-.29-.47-.55s-.5-.51-.78-.77-.55-.52-.78-.78-.39-.44-.47-.54a2,2,0,0,1-.32-.58L56.51,16a4.93,4.93,0,0,0-.45-.89,1.85,1.85,0,0,0-.43-.51,1.2,1.2,0,0,0-1-.17.77.77,0,0,0-.64.7,2.17,2.17,0,0,0,.36,1,13.51,13.51,0,0,0,1,1.42L56.5,19c.4.5.73.89,1,1.17L59,21.9a6.61,6.61,0,0,1,.73.87c0,.06,0,.36.09.88s.12,1.1.2,1.73.15,1.24.2,1.83l.08,1.09a4.58,4.58,0,0,1,0,.73,5.77,5.77,0,0,0,0,.94,1.49,1.49,0,0,0,.34.78,1,1,0,0,0,.89.29c.41,0,.66-.17.74-.42a1.93,1.93,0,0,0,.08-.81,5.73,5.73,0,0,0-.21-.92,5.68,5.68,0,0,1-.21-.72,2.87,2.87,0,0,1-.23-.89c-.07-.46-.14-1-.2-1.52s-.11-1.08-.13-1.58A6,6,0,0,1,61.45,23,10.91,10.91,0,0,1,62,21.89c.31-.56.67-1.18,1.09-1.85s.81-1.29,1.18-1.87.64-1,.79-1.16c.26-.38.58-.83,1-1.34a2,2,0,0,0,.53-1.13.93.93,0,0,0-.45-.67,2.53,2.53,0,0,1-.57-.49c-.14-.1-.34-.05-.58.15a3.07,3.07,0,0,0-.7.92c-.1.18-.25.49-.46.9l-.64,1.28-.57,1.21c-.16.37-.27.64-.33.83a6.42,6.42,0,0,0-.39.6c-.19.3-.38.58-.57.86l-.54.78A1.51,1.51,0,0,1,60.49,21.27Zm-3-6,2.59,3.43c0-.09-.2-.31-.44-.67a10.64,10.64,0,0,0-.93-1.14C58.3,16.45,57.9,15.91,57.46,15.28Zm9.44.4-2.12,3.55c-.54.95-1,1.79-1.48,2.51A5.13,5.13,0,0,0,62.64,23l.09,1.19c.06.73.15,1.52.26,2.37.08,1,.2,2.19.37,3.43a2.36,2.36,0,0,0-.21.43,1.45,1.45,0,0,1-.3.5l-.34.4a1.69,1.69,0,0,0,.48-.41,2.67,2.67,0,0,0,.31-.61,2.73,2.73,0,0,0,.07-1.06c0-.36,0-.91-.08-1.62s-.06-1.43-.11-2.13L63,22.79c.68-1.2,1.33-2.32,1.93-3.37l1.36-2.5A12,12,0,0,0,66.9,15.68Z"/></svg>